<svg xmlns="http://www.w3.org/2000/svg" viewBox="0 0 64 64">
  <!-- left page -->
  <path d="M4 14 C16 10 24 10 32 14 L32 56 C24 52 16 52 4 56 Z" fill="none" stroke="#00ff00" stroke-width="2"/>
  <!-- right page -->
  <path d="M60 14 C48 10 40 10 32 14 L32 56 C40 52 48 52 60 56 Z" fill="none" stroke="#00ff00" stroke-width="2"/>
  <!-- left page lines -->
  <line x1="10" y1="25" x2="27" y2="23" stroke="#00ff00" stroke-width="1.5" opacity="0.5"/>
  <line x1="10" y1="33" x2="27" y2="31" stroke="#00ff00" stroke-width="1.5" opacity="0.5"/>
  <line x1="10" y1="41" x2="27" y2="39" stroke="#00ff00" stroke-width="1.5" opacity="0.5"/>
  <!-- right page lines -->
  <line x1="37" y1="23" x2="54" y2="25" stroke="#00ff00" stroke-width="1.5" opacity="0.5"/>
  <line x1="37" y1="31" x2="54" y2="33" stroke="#00ff00" stroke-width="1.5" opacity="0.5"/>
  <line x1="37" y1="39" x2="54" y2="41" stroke="#00ff00" stroke-width="1.5" opacity="0.5"/>
  <!-- 4-pointed sparkle top-right (amber) — "aha, new word" -->
  <circle cx="50" cy="11" r="2.5" fill="#ffb000"/>
  <line x1="50" y1="4"  x2="50" y2="8.5"  stroke="#ffb000" stroke-width="1.5" stroke-linecap="round"/>
  <line x1="50" y1="13.5" x2="50" y2="18" stroke="#ffb000" stroke-width="1.5" stroke-linecap="round"/>
  <line x1="43" y1="11" x2="47.5" y2="11" stroke="#ffb000" stroke-width="1.5" stroke-linecap="round"/>
  <line x1="52.5" y1="11" x2="57" y2="11" stroke="#ffb000" stroke-width="1.5" stroke-linecap="round"/>
  <line x1="45.5" y1="6.5"  x2="47.8" y2="8.8"  stroke="#ffb000" stroke-width="1" stroke-linecap="round" opacity="0.6"/>
  <line x1="52.2" y1="13.2" x2="54.5" y2="15.5" stroke="#ffb000" stroke-width="1" stroke-linecap="round" opacity="0.6"/>
  <line x1="54.5" y1="6.5"  x2="52.2" y2="8.8"  stroke="#ffb000" stroke-width="1" stroke-linecap="round" opacity="0.6"/>
  <line x1="47.8" y1="13.2" x2="45.5" y2="15.5" stroke="#ffb000" stroke-width="1" stroke-linecap="round" opacity="0.6"/>
</svg>
