<svg xmlns="http://www.w3.org/2000/svg" width="64" height="64" viewBox="0 0 64 64"><g transform="translate(9.772,6.000) scale(0.48612) translate(-47.0,-458.45)"><path d="M76.8388 459.254C83.5318 459.21 131.682 458.456 134.999 460.034C138.45 464.575 138.36 495.691 135.479 500.747C133.033 502.422 106.532 506.162 101.386 507.014C94.9547 508.149 53.0914 515.127 50.3463 513.706C48.8132 512.913 48.0763 509.183 47.8446 507.661C47.0042 502.141 47.0549 472.367 47.7272 466.728C47.9935 464.495 48.3432 462.362 49.7209 460.536C53.643 458.448 71.0682 459.232 76.8388 459.254Z"/><path d="M100.357 513.686C102.589 513.454 103.558 513.263 105.046 515.092C105.187 520.219 100.135 556.137 98.0095 563.028C97.2721 565.418 89.9087 565.367 87.0217 565.359C86.5473 565.311 86.2284 565.299 85.7515 565.141C84.2022 564.628 82.9401 563.487 82.2742 561.997C81.0893 559.373 86.4293 520.756 88.1128 516.722C90.4371 514.62 97.0069 514.144 100.357 513.686Z"/></g></svg>