<?xml version="1.0" encoding="utf-8" ?><svg xmlns="http://www.w3.org/2000/svg" xmlns:xlink="http://www.w3.org/1999/xlink" width="951" height="125" viewBox="39 450 951 125"><path fill="white" d="M0 0L1024 0L1024 1024L0 1024L0 0Z"/><path d="M826.291 468.226C834.415 468.096 843.744 468.439 851.947 468.255C873.089 467.781 898.668 468.365 894.64 497.663C893.788 503.858 889.575 507.286 884.688 510.599C898.582 518.357 903.634 529.396 896.569 544.509C887.252 558.884 870.584 556.706 855.443 556.72L825.508 556.716C825.535 535.529 825.217 492.609 825.665 469C825.873 468.742 826.082 468.484 826.291 468.226Z"/><path fill="white" d="M839.497 518.106C850.516 517.956 861.797 517.591 872.753 518.386C884.755 519.256 890.741 531.818 882.34 540.951C873.928 546.524 850.244 544.773 839.483 544.611C839.46 535.843 839.377 526.865 839.497 518.106Z"/><path fill="white" d="M839.414 480.519C848.771 480.417 858.694 480.246 868.002 480.87C879.825 481.664 885.412 492.751 877.569 502.076C870.251 507.308 849.248 505.988 839.584 505.966C839.341 497.486 839.284 489.002 839.414 480.519Z"/><path d="M76.8388 459.254C83.5318 459.21 131.682 458.456 134.999 460.034C138.45 464.575 138.36 495.691 135.479 500.747C133.033 502.422 106.532 506.162 101.386 507.014C94.9547 508.149 53.0914 515.127 50.3463 513.706C48.8132 512.913 48.0763 509.183 47.8446 507.661C47.0042 502.141 47.0549 472.367 47.7272 466.728C47.9935 464.495 48.3432 462.362 49.7209 460.536C53.643 458.448 71.0682 459.232 76.8388 459.254Z"/><path d="M757.434 469.105L773.12 469.015C785.241 498.306 797.861 527.388 810.974 556.248C806.164 556.147 800.886 556.307 796.04 556.355C793.03 548.448 790.606 542.057 786.784 534.511L775.25 534.482L743.148 534.53C740.25 541.665 737.366 549.033 734.128 556C729.363 556.176 724.895 556.054 720.14 555.943C724.93 546.451 729.776 533.557 734.043 523.48L757.434 469.105Z"/><path fill="white" d="M765.182 481.818C765.892 482.481 780.593 519.162 781.748 522.521L767.125 522.496C761.143 522.522 755.162 522.495 749.18 522.413C752.696 512.529 760.882 490.485 765.182 481.818Z"/><path d="M320.797 469.255L333.799 469.391C334.917 496.466 334.129 528.624 334.028 556.084L320.552 555.975L320.472 518.324C305.322 518.224 290.172 518.246 275.022 518.389L274.996 555.917C273.56 556.303 263.282 556.039 261.115 556.016C260.28 528.475 260.997 497.225 261.043 469.344C265.571 469.304 270.266 469.416 274.808 469.461C275.03 481.275 274.861 493.652 274.867 505.508L320.3 505.829C320.786 496.716 319.71 476.509 320.797 469.255Z"/><path d="M513.314 469.114C518.229 468.933 524.061 469.132 529.043 469.177C517.261 482.244 505.361 494.297 493.778 507.681C499.703 515.702 506.791 524.14 513.098 531.956C519.556 540.147 526.272 547.737 532.677 556.129L516.056 556.081C512.397 552.291 507.703 546.364 504.24 542.219L484.252 518.245C479.962 522.227 473.645 529.396 470.003 533.92C469.406 540.643 469.6 549.444 469.615 556.288L456.032 556.173C455.942 527.323 455.621 497.92 455.988 469.109L469.601 469.344C470.297 484.706 469.346 500.518 469.749 515.95C480.902 502.515 500.795 481.253 513.314 469.114Z"/><path d="M542.853 469.478C561.781 468.894 583.53 469.241 602.575 469.359L602.809 481.028C587.44 480.823 571.818 480.93 556.429 480.897L556.502 506.23C570.413 506.424 584.337 506.193 598.319 506.431L598.422 517.76C584.919 517.573 570.671 517.87 557.13 517.944C555.94 519.553 556.633 540.72 556.676 544.307C572.743 544.403 588.809 544.412 604.876 544.334L604.968 556.472C584.533 556.488 563.293 555.838 542.981 556.268C542.811 528.231 542.08 497.314 542.853 469.478Z"/><path d="M359.114 468.989L372.493 469.007L372.593 503.328C372.618 518.781 370.295 543.109 391.998 544.45C419.607 546.157 417.228 522.315 417.207 502.895C417.118 491.651 417.147 480.407 417.293 469.163L430.651 469.148L430.673 482.274L430.824 507.149C430.902 521.887 431.65 537.025 420.407 548.362C413.454 555.372 404.493 557.464 394.909 557.4C385.448 557.384 375.458 554.995 368.694 547.969C361.026 540.003 358.874 528.464 358.911 517.77C358.932 511.793 358.94 505.808 358.965 499.828L359.114 468.989Z"/><path d="M945.287 467.713C956.122 467.451 963.998 470.074 973.414 475.024C972.055 478.877 970.611 482.701 969.083 486.491C957.755 481.155 941.258 476.14 929.995 484.978C925.774 488.444 926.061 498.011 930.687 500.851C944.389 509.265 973.895 506.657 976.605 527.892C979.927 553.921 957.085 558.977 936.463 556.998C927.33 556.282 918.019 552.252 910.381 547.365C912.123 543.76 913.865 539.153 915.402 535.385C925.995 542.282 933.858 545.555 946.754 544.945C955.677 544.522 964.234 541.3 962.864 530.757C961.446 519.847 940.694 519.009 932.515 515.917C927.822 514.143 923.859 513.13 919.885 509.882C909.748 502.842 911.871 486.014 918.853 477.357C924.942 469.807 935.867 468.216 945.287 467.713Z"/><path d="M208.794 467.704C219.012 466.703 230.239 469.944 239.188 474.784C238.117 478.565 236.7 482.43 235.402 486.155C224.329 481.473 208.007 476.513 197.091 484.237C191.312 488.326 192.327 498.668 198.176 501.644C214.174 509.787 243.334 506.826 243.304 532.355C243.277 555.018 223.187 557.808 205.386 557.417C193.614 556.219 186.667 553.347 176.857 546.88C178.524 543.024 180.162 539.156 181.77 535.275C190.968 543.239 206.061 546.434 217.496 544.605C235.207 541.772 233 522.745 215.595 520.073C208.312 518.955 192.679 514.652 187.034 510.459C182.82 507.386 180.12 502.659 179.613 497.468C177.421 476.941 190.701 469.387 208.794 467.704Z"/><path d="M657.366 469.107C661.768 469.174 666.17 469.276 670.571 469.413C670.832 494.067 670.702 518.864 671.179 543.505L715.946 543.601C715.949 547.873 715.834 552.144 715.6 556.41L657.178 556.388C656.953 528.903 656.411 496.403 657.366 469.107Z"/><path d="M100.357 513.686C102.589 513.454 103.558 513.263 105.046 515.092C105.187 520.219 100.135 556.137 98.0095 563.028C97.2721 565.418 89.9087 565.367 87.0217 565.359C86.5473 565.311 86.2284 565.299 85.7515 565.141C84.2022 564.628 82.9401 563.487 82.2742 561.997C81.0893 559.373 86.4293 520.756 88.1128 516.722C90.4371 514.62 97.0069 514.144 100.357 513.686Z"/></svg>